<svg width="29" height="22" viewBox="0 0 29 22" fill="none" xmlns="http://www.w3.org/2000/svg">
<g clip-path="url(#clip0_56_402)">
<path d="M27.236 4.17995C27.0924 3.59989 26.8001 3.06842 26.3885 2.63922C25.9769 2.21002 25.4606 1.89828 24.8918 1.7355C22.8135 1.22217 14.5001 1.22217 14.5001 1.22217C14.5001 1.22217 6.18679 1.22217 4.10845 1.78439C3.53963 1.94717 3.02334 2.25891 2.61175 2.68811C2.20015 3.11731 1.90782 3.64878 1.76429 4.22883C1.38392 6.36229 1.19786 8.52655 1.20845 10.6944C1.1949 12.8786 1.38097 15.0593 1.76429 17.2088C1.92253 17.7709 2.22141 18.2821 2.63205 18.6932C3.04268 19.1043 3.5512 19.4013 4.10845 19.5555C6.18679 20.1177 14.5001 20.1177 14.5001 20.1177C14.5001 20.1177 22.8135 20.1177 24.8918 19.5555C25.4606 19.3927 25.9769 19.081 26.3885 18.6518C26.8001 18.2226 27.0924 17.6911 27.236 17.1111C27.6134 14.9937 27.7994 12.8459 27.7918 10.6944C27.8053 8.51022 27.6193 6.32947 27.236 4.17995Z" stroke="#BA8E78" stroke-width="2" stroke-linecap="round" stroke-linejoin="round"/>
<path d="M11.7812 14.6911L18.7292 10.6944L11.7812 6.69775V14.6911Z" stroke="#BA8E78" stroke-width="2" stroke-linecap="round" stroke-linejoin="round"/>
</g>
<defs>
<clipPath id="clip0_56_402">
<rect width="29" height="22" fill="white"/>
</clipPath>
</defs>
</svg>
